<?xml version="1.0" encoding="UTF-8" standalone="no"?>
<svg width="236px" height="29px" viewBox="0 0 236 29" version="1.1" xmlns="http://www.w3.org/2000/svg" xmlns:xlink="http://www.w3.org/1999/xlink" xmlns:sketch="http://www.bohemiancoding.com/sketch/ns">
    <!-- Generator: Sketch 3.5.2 (25235) - http://www.bohemiancoding.com/sketch -->
    <title>ola_corporate</title>
    <desc>Created with Sketch.</desc>
    <defs></defs>
    <g id="Page-1" stroke="none" stroke-width="1" fill="none" fill-rule="evenodd" sketch:type="MSPage">
        <g id="Ola-Corporate-Monthly-Report" sketch:type="MSArtboardGroup" transform="translate(-50.000000, -23.000000)">
            <g id="ola_corporate" sketch:type="MSLayerGroup" transform="translate(50.000000, 23.000000)">
                <g id="Home" sketch:type="MSShapeGroup">
                    <g id="Group-Copy-5-+-CORPORATE">
                        <g id="Group">
                            <g id="Group-Copy-5">
                                <path d="M75.3998463,13.8823951 L80.5075115,23.0793643 L85.0138051,23.0793643 L75.4096173,5.8013398 L65.7643905,23.0793643 L70.1957124,23.0680028 L75.3998463,13.8823951 L75.3998463,13.8823951 Z" id="Fill-6" fill="#221F20"></path>
                                <path d="M47.8705127,19.1294677 C45.3427956,19.1262722 43.2949326,17.0758737 43.2977751,14.5502444 C43.3025719,12.0240824 45.3538104,9.97865466 47.8817052,9.98149504 C50.4115541,9.98486797 52.4569299,12.035444 52.4535544,14.5617834 C52.4507118,17.0879453 50.3976968,19.1326631 47.8705127,19.1294677 M47.8875679,5.97886864 C43.1483648,5.9737205 39.2992281,9.80769931 39.2933654,14.5443861 C39.2875027,19.2819605 43.1252693,23.1262357 47.8642947,23.132094 C52.604386,23.1374197 56.4533451,19.3037959 56.4592078,14.5665766 C56.4654258,9.82953475 52.6265932,5.9857921 47.8875679,5.97886864" id="Fill-8" fill="#221F20"></path>
                                <path d="M61.404132,19.1406465 L61.4194108,5.97886347 L57.6118457,5.97886347 L57.5958565,18.2716681 L57.5921257,23.1432728 L64.0755745,23.1432728 L66.3778437,19.1406465 L61.404132,19.1406465 L61.404132,19.1406465 Z" id="Fill-9" fill="#221F20"></path>
                                <path d="M28.3477991,14.3825426 C28.2229055,6.03857476 20.1090901,0.417820084 12.1969164,1.5470482 C9.879724,2.12613044 7.35822495,3.31234365 5.56974256,4.945739 C4.70081761,5.52446619 4.29167139,6.62316024 3.42310175,7.49178361 C-0.0527756965,12.7008609 0.541490088,19.3524955 4.88647015,23.4041184 C5.42583963,23.9432578 6.02916595,24.4795569 6.66518134,24.9604685 C3.03278728,22.7439078 1.41414586,19.3778814 0.831783148,15.3010502 C0.831783148,13.8535221 1.1217209,12.4065266 1.41112567,10.9597087 C3.43891331,4.59246688 9.80990442,-0.0380607197 16.7614817,1.11957118 C17.9201667,1.4091123 19.0779634,1.69829837 20.2370038,1.98819453 C21.6849159,2.5667442 23.1331834,3.43501251 24.2915132,4.59246688 C25.4500205,5.75009878 26.3193008,7.19727179 27.1876927,8.64426728 C27.7672129,9.8018992 28.0571507,11.2488947 28.3463778,12.4065266 C28.3936348,13.0649619 28.3900817,13.7251725 28.3477991,14.3825426 M15.5768586,27.3488721 C18.6807203,26.8516283 21.3024184,25.0891732 23.4296945,22.6984618 C24.0083264,21.830371 24.4691711,21.024591 25.048336,20.1565003 C25.7575464,18.385169 25.7111777,16.8060959 25.934849,15.6882293 C26.2246091,13.6623291 25.5503972,12.0324842 24.9715877,10.2957701 C24.1026628,8.27004739 22.9512617,6.75452775 20.924007,5.59689585 C15.8092352,2.3688053 8.85197284,3.27612882 5.51893238,8.10335267 C5.50525272,8.10708067 5.40771852,8.23614036 5.22686275,8.48236573 C5.46563501,7.4868129 6.04479987,6.90790823 6.62396473,6.32882596 C8.36199227,4.88183048 10.3890693,3.72455362 12.7062617,3.14547139 C15.3132142,2.85593027 17.9201667,3.14547139 20.2370038,4.30328081 C23.7123483,6.32882596 26.029363,9.51235809 26.6085279,13.2747949 L26.6085279,16.7475131 C25.8970079,22.4357268 21.1057511,26.7625114 15.5768586,27.3488721 M28.7214137,12.7633492 C28.6665174,12.0521893 28.4915243,11.1205451 28.2211289,10.2144642 C27.6805159,8.39591168 26.7579382,6.68032284 25.4304782,5.19214187 C24.7630173,4.44494471 23.9946468,3.7550877 22.8551487,2.93954392 C21.5738797,2.27826822 20.8348227,1.86055501 20.2904788,1.53639678 C19.7457796,1.21241607 19.0779634,0.830385113 18.2095715,0.540843993 C17.1594355,0.287517705 16.1091217,0.151889615 15.073376,0.125438587 C14.0363866,0.0988100354 13.0130769,0.18206864 12.0149947,0.365805647 C10.9689448,0.540843993 10.0993092,0.830385113 8.94115713,1.11957118 C6.33455997,2.27738061 4.30748294,4.0137397 2.56927773,6.32882596 C-3.51301925,15.011509 1.99029053,27.1667328 12.1270969,28.6140833 C13.799924,28.8524976 15.4592491,28.7545046 17.0439578,28.3838351 L18.158406,28.0761866 C18.2012216,28.0626948 18.2435042,28.0467176 18.2861421,28.0325157 L19.5661674,27.5388224 C19.6295914,27.5107737 19.6924823,27.4802396 19.7553732,27.4518358 L20.2860374,27.1954916 C21.3063269,26.6764124 22.2678116,26.0408776 23.1450865,25.3048644 C22.348113,26.0527717 21.4772338,26.71529 20.5445297,27.272892 L20.5901878,27.3147875 L20.5885888,27.3169178 C20.7598511,27.262063 20.931824,27.2096935 21.1057511,27.1667328 C21.1057511,27.1667328 21.1057511,27.4555638 21.0762599,27.392898 C20.7918295,27.5981153 21.2359744,27.4184613 21.8025255,27.1120555 C22.3726298,26.8044069 22.9159078,26.4427912 23.4222329,26.0087458 C24.1468996,25.3817322 24.7983712,24.7067872 25.69128,23.6034775 C26.6085279,21.9571229 27.7672129,20.5099499 28.2950346,18.5768946 C28.4712713,18.0629635 28.634006,17.4553 28.7464635,16.8321919 C28.8590986,16.2087287 28.9211012,15.5707087 28.9223448,14.9151137 C28.9237661,14.2591637 28.8658496,13.5854613 28.7214137,12.7633492" id="Fill-12" fill="#221F20"></path>
                                <path d="M21.2079588,14.4254401 C21.2079588,18.0119509 18.2575935,20.9194337 14.6161388,20.9194337 C10.9766384,20.9194337 8.02556249,18.0119509 8.02556249,14.4254401 C8.02556249,10.8392842 10.9766384,7.93162395 14.6161388,7.93162395 C18.2575935,7.93162395 21.2079588,10.8392842 21.2079588,14.4254401" id="Fill-13" fill="#FEFEFE"></path>
                                <path d="M20.8466903,15.6740922 C20.7203755,16.2198 20.5929948,16.7651527 20.4663246,17.3117481 C20.2058781,17.9943266 19.8098786,18.6809882 19.2753058,19.2336195 C18.7407331,19.7862507 18.0672319,20.204674 17.3951519,20.6243399 C16.8563154,20.9051824 16.1783728,21.0518169 15.6374043,21.1975639 C15.3172648,21.2256127 14.9420512,21.0830611 14.6213787,21.066729 C18.5565019,20.9607473 21.2686278,17.2142876 20.6738291,13.5031552 C20.384069,12.4211483 19.8237359,11.4790302 19.1283827,10.5397524 C18.8492821,10.1369512 18.3008521,9.87439363 17.8865538,9.47354519 C15.4114234,7.88524082 12.1542429,8.21188441 10.2847485,10.2818105 C10.0289211,10.5459657 9.77558087,10.8427853 9.55048827,11.1541618 C10.540043,9.66988638 12.1377207,8.62338432 14.059269,8.31591327 C14.7386329,8.30401921 15.421017,8.42864079 16.1030458,8.5530849 C19.1097286,9.45312994 21.3352495,12.4048162 20.8466903,15.6740922 M13.5838563,20.4166372 C10.8832781,20.125676 8.80521326,17.876806 8.51278828,15.260107 C8.75955513,16.722192 9.62155142,17.8421889 10.7777493,18.8341912 C11.189738,19.0987014 11.7941303,19.4722113 12.2064743,19.7374317 C12.8909904,19.9971488 13.3097301,20.2856248 13.9915813,20.4093588 C13.9926472,20.4100689 13.9937132,20.4093588 13.9946015,20.4100689 C13.8576272,20.4120216 13.7208306,20.414507 13.5838563,20.4166372 M16.9248914,10.139614 C17.5294613,10.4971467 17.6142042,10.5473859 17.2967294,10.322996 C17.7661017,10.4270249 18.0430704,10.6940205 18.3195062,10.9610161 C19.0127274,11.7644882 19.5725275,12.7064289 19.8628206,13.7886132 C20.0195149,15.0087334 19.9045702,16.2332918 19.3787027,17.3293229 C18.4550592,18.9756775 16.9781888,20.0875084 15.2158221,20.3892986 C15.0136474,20.3930266 14.8114726,20.396222 14.6100085,20.3992399 C15.1022986,20.3028446 15.4274127,19.9838345 16.329915,19.6458294 C17.298506,19.2820834 18.4156191,17.6373265 18.9434408,16.677456 C20.5311697,14.0687456 18.6787305,11.657619 16.9248914,10.139614 M21.1634544,13.4422645 C21.0724935,12.9526542 20.9298342,12.5473676 20.78451,12.0068081 C20.2202684,10.7936113 19.3882963,9.85610872 18.2869948,9.05955998 C14.1601787,6.27581118 8.49448954,8.9532233 7.89578231,13.7192014 C7.65949724,15.5947391 8.31452206,17.4198601 9.49115052,18.8018819 C9.13157084,18.423934 8.74534251,18.0300089 8.47796733,17.5860222 L8.44119212,17.6300481 C8.48311941,17.7436632 8.61529689,17.801536 8.64656468,17.918169 C8.64656468,17.918169 8.5110117,17.9208319 8.53996995,17.9062749 C8.44190274,17.7745523 8.5293105,17.9815449 8.67729951,18.2449901 C8.82653222,18.5096779 9.00063699,18.7617615 9.20867443,18.9957377 C9.50856097,19.3303699 9.83101016,19.6309175 10.3568776,20.0408196 C11.1373289,20.4578228 11.8261087,20.9895061 12.7382045,21.2220622 C12.9808853,21.3008827 13.2679805,21.3722472 13.5612938,21.4201786 C13.8549623,21.4679325 14.1553819,21.4922532 14.4627301,21.487105 C14.7711443,21.4831995 15.0871977,21.4503576 15.4725378,21.3761527 C15.8060018,21.3449086 16.242152,21.2554366 16.6653332,21.1212287 C17.5159593,20.8528129 18.3139988,20.4065184 19.0029562,19.7724038 C19.3483232,19.4537488 19.8200051,19.0449118 20.193975,18.5036421 C20.4943946,17.8979313 20.5311697,17.5904603 20.6791588,17.3328735 C20.8269702,17.0749315 21.0008973,16.7582293 21.1305877,16.3488597 C21.2407356,15.8544563 21.2963425,15.3609405 21.3006063,14.8748806 C21.3043371,14.3881107 21.2572577,13.9086192 21.1634544,13.4422645" id="Fill-14" fill="#D6DF23"></path>
                            </g>
                            <path d="M94.7439784,6.1998567 C89.8884492,6.1998567 85.9357062,9.98846008 85.9357062,14.6999283 C85.9357062,19.4113966 89.8884492,23.2242859 94.7439784,23.2242859 C97.0131458,23.2242859 99.1847141,22.3257069 100.770691,20.8685518 L100.1363,20.1642601 C98.6967215,21.4514139 96.7935487,22.2285632 94.7683779,22.2285632 C90.4496409,22.2285632 86.9604916,18.8528205 86.9604916,14.6756424 C86.9604916,10.5227503 90.4496409,7.17129348 94.7683779,7.17129348 C96.7935487,7.17129348 98.721121,7.94844284 100.1363,9.25988247 L100.746292,8.4827331 C99.1603146,7.0741498 97.0375453,6.1998567 94.7439784,6.1998567 L94.7439784,6.1998567 L94.7439784,6.1998567 Z M111.457736,6.1998567 C106.577807,6.1998567 102.625064,9.98846008 102.625064,14.6999283 C102.625064,19.4113966 106.577807,23.2242859 111.457736,23.2242859 C116.337666,23.2242859 120.290408,19.4113966 120.290408,14.6999283 C120.290408,9.98846008 116.337666,6.1998567 111.457736,6.1998567 L111.457736,6.1998567 L111.457736,6.1998567 Z M111.457736,7.19557935 C115.727674,7.19557935 119.241223,10.5470362 119.241223,14.6999283 C119.241223,18.8528205 115.727674,22.2285632 111.457736,22.2285632 C107.187798,22.2285632 103.674249,18.8528205 103.674249,14.6999283 C103.674249,10.5470362 107.187798,7.19557935 111.457736,7.19557935 L111.457736,7.19557935 L111.457736,7.19557935 Z M135.832983,23.2 L137.052965,23.2 L132.783027,17.2742358 C135.491388,16.59423 136.979766,14.6999283 136.979766,11.809904 C136.979766,8.26415981 134.588601,6.22414263 130.367462,6.22414263 L124.34075,6.22414263 L124.34075,23.2 L125.365534,23.2 L125.365534,17.5413809 L130.367462,17.5413809 C130.879854,17.5413809 131.343448,17.517095 131.807041,17.4442372 L135.832983,23.2 L135.832983,23.2 Z M125.365534,16.5456582 L125.365534,7.21986529 L130.391862,7.21986529 C133.95421,7.21986529 135.97938,8.84702188 135.97938,11.8341899 C135.97938,14.8699298 133.95421,16.5456582 130.391862,16.5456582 L125.365534,16.5456582 L125.365534,16.5456582 Z M141.957294,6.22414263 L141.957294,23.2 L142.982079,23.2 L142.982079,17.5413809 L147.959607,17.5413809 C152.156346,17.5413809 154.523112,15.4527918 154.523112,11.809904 C154.523112,8.26415981 152.156346,6.22414263 147.959607,6.22414263 L141.957294,6.22414263 L141.957294,6.22414263 Z M142.982079,7.21986529 L147.935207,7.21986529 C151.497556,7.21986529 153.547126,8.84702188 153.547126,11.8341899 C153.547126,14.8699298 151.497556,16.5456582 147.935207,16.5456582 L142.982079,16.5456582 L142.982079,7.21986529 L142.982079,7.21986529 Z M165.185757,6.1998567 C160.305828,6.1998567 156.353085,9.98846008 156.353085,14.6999283 C156.353085,19.4113966 160.305828,23.2242859 165.185757,23.2242859 C170.065686,23.2242859 174.018429,19.4113966 174.018429,14.6999283 C174.018429,9.98846008 170.065686,6.1998567 165.185757,6.1998567 L165.185757,6.1998567 L165.185757,6.1998567 Z M165.185757,7.19557935 C169.455695,7.19557935 172.969244,10.5470362 172.969244,14.6999283 C172.969244,18.8528205 169.455695,22.2285632 165.185757,22.2285632 C160.915819,22.2285632 157.40227,18.8528205 157.40227,14.6999283 C157.40227,10.5470362 160.915819,7.19557935 165.185757,7.19557935 L165.185757,7.19557935 L165.185757,7.19557935 Z M189.561004,23.2 L190.780986,23.2 L186.511048,17.2742358 C189.219409,16.59423 190.707787,14.6999283 190.707787,11.809904 C190.707787,8.26415981 188.316622,6.22414263 184.095483,6.22414263 L178.06877,6.22414263 L178.06877,23.2 L179.093555,23.2 L179.093555,17.5413809 L184.095483,17.5413809 C184.607875,17.5413809 185.071469,17.517095 185.535062,17.4442372 L189.561004,23.2 L189.561004,23.2 Z M179.093555,16.5456582 L179.093555,7.21986529 L184.119882,7.21986529 C187.682231,7.21986529 189.707401,8.84702188 189.707401,11.8341899 C189.707401,14.8699298 187.682231,16.5456582 184.119882,16.5456582 L179.093555,16.5456582 L179.093555,16.5456582 Z M206.250362,18.3671021 L208.470729,23.2 L209.593113,23.2 L201.785226,6.22414263 L200.687242,6.22414263 L192.952555,23.2 L194.074938,23.2 L196.270906,18.3671021 L206.250362,18.3671021 L206.250362,18.3671021 Z M205.786768,17.3470935 L196.7101,17.3470935 L201.224035,7.38986671 L205.786768,17.3470935 L205.786768,17.3470935 Z M221.109746,7.21986529 L221.109746,6.22414263 L208.568328,6.22414263 L208.568328,7.21986529 L214.326645,7.21986529 L214.326645,23.2 L215.351429,23.2 L215.351429,7.21986529 L221.109746,7.21986529 L221.109746,7.21986529 Z M235.33474,7.21986529 L235.33474,6.22414263 L224.330499,6.22414263 L224.330499,23.2 L235.651935,23.2 L235.651935,22.2042773 L225.355285,22.2042773 L225.355285,15.0156453 L234.236755,15.0156453 L234.236755,13.9956367 L225.355285,13.9956367 L225.355285,7.21986529 L235.33474,7.21986529 L235.33474,7.21986529 Z" id="CORPORATE" fill="#666666"></path>
                        </g>
                    </g>
                </g>
            </g>
        </g>
    </g>
</svg>