<?xml version="1.0" encoding="UTF-8" standalone="no"?>
<svg width="28px" height="12px" viewBox="0 0 28 12" version="1.1" xmlns="http://www.w3.org/2000/svg" xmlns:xlink="http://www.w3.org/1999/xlink" xmlns:sketch="http://www.bohemiancoding.com/sketch/ns">
    <!-- Generator: Sketch 3.5.2 (25235) - http://www.bohemiancoding.com/sketch -->
    <title>mini copy 2</title>
    <desc>Created with Sketch.</desc>
    <defs></defs>
    <g id="Page-1" stroke="none" stroke-width="1" fill="none" fill-rule="evenodd" sketch:type="MSPage">
        <g id="Ola-Corporate-Monthly-Report" sketch:type="MSArtboardGroup" transform="translate(-52.000000, -493.000000)" fill="#707070">
            <g id="card" sketch:type="MSLayerGroup" transform="translate(0.000000, 466.000000)">
                <g id="Group-2" transform="translate(50.000000, 16.101911)" sketch:type="MSShapeGroup">
                    <g id="Category" transform="translate(0.000000, 5.000000)">
                        <g id="mini-copy-2" transform="translate(2.000000, 6.000000)">
                            <g id="Group" transform="translate(0.700000, 0.300000)">
                                <path d="M1.70002441,9.03157049 C1.37273681,9.03157049 0.13679569,8.97034243 0.0162973841,7.93525065 C-0.103724644,6.90015887 0.437327038,4.89023916 1.70089228,3.42896149 C2.96398124,1.96768381 3.80604054,1.48026984 2.96398124,0.871363966 C2.96398124,0.871363966 3.86652784,0.993337985 6.63370237,0.505924019 C9.4008769,0.0189921629 13.9126573,0.0797381172 15.8377726,1.66298981 C17.7628878,3.24624151 19.2669734,3.91589334 22.8161962,4.22058733 C24.9218207,4.46212482 26.485441,5.62111906 26.1248987,7.44783668 C26.176813,8.11797062 26.2449207,8.11797062 26.485441,8.3006906 C26.7264377,8.48341057 26.6059393,9.03157049 25.9443894,9.03157049 L24.3,9.03157049" id="Path"></path>
                                <path d="M24.1000002,8.85020519 C24.1000002,10.0372891 23.1373809,11.0000002 21.9500001,11.0000002 C20.7626193,11.0000002 19.8,10.0372891 19.8,8.85020519 C19.8,7.66230091 20.7626193,6.7 21.9500001,6.7 C23.1373809,6.7 24.1000002,7.66230091 24.1000002,8.85020519 L24.1000002,8.85020519 L24.1000002,8.85020519 Z" id="Oval" stroke="#FFFFFF" stroke-width="0.5" stroke-linecap="round" stroke-linejoin="round"></path>
                                <path d="M6.30000019,8.85020519 C6.30000019,10.0372891 5.33769928,11.0000002 4.15020519,11.0000002 C2.9627111,11.0000002 2,10.0372891 2,8.85020519 C2,7.66230091 2.9627111,6.7 4.15020519,6.7 C5.33769928,6.7 6.30000019,7.66230091 6.30000019,8.85020519 L6.30000019,8.85020519 L6.30000019,8.85020519 Z" id="Oval" stroke="#FFFFFF" stroke-width="0.5" stroke-linecap="round" stroke-linejoin="round"></path>
                            </g>
                        </g>
                    </g>
                </g>
            </g>
        </g>
    </g>
</svg>