<?xml version="1.0" encoding="UTF-8" standalone="no"?>
<svg width="28px" height="21px" viewBox="0 0 28 21" version="1.1" xmlns="http://www.w3.org/2000/svg" xmlns:xlink="http://www.w3.org/1999/xlink" xmlns:sketch="http://www.bohemiancoding.com/sketch/ns">
    <!-- Generator: Sketch 3.5.2 (25235) - http://www.bohemiancoding.com/sketch -->
    <title>Category</title>
    <desc>Created with Sketch.</desc>
    <defs></defs>
    <g id="Page-1" stroke="none" stroke-width="1" fill="none" fill-rule="evenodd" sketch:type="MSPage">
        <g id="Ola-Corporate-Monthly-Report" sketch:type="MSArtboardGroup" transform="translate(-52.000000, -329.000000)">
            <g id="card" sketch:type="MSLayerGroup" transform="translate(0.000000, 307.000000)">
                <g id="Group-2" transform="translate(50.000000, 16.101911)" sketch:type="MSShapeGroup">
                    <g id="Category" transform="translate(0.000000, 5.000000)">
                        <rect id="Rectangle-173-Copy-2" x="0" y="0" width="32" height="24"></rect>
                        <g id="Group-Copy" transform="translate(2.000000, 1.000000)" fill="#707070">
                            <path d="M4.05785475,18.0452208 L0.868153136,17.5911208 C0.868153136,17.5911208 0.4861612,17.5360208 0.421806362,17.2016208 C0.357451523,16.8676958 0.0733708778,16.8415708 0.0591208778,16.4235708 C0.0453305552,16.0060458 0.0586612004,15.5657208 0.254483781,15.1268208 C0.450306362,14.6879208 0.672790233,14.7952708 0.7426612,13.9739958 C0.812072491,13.1527208 0.64474991,12.5043458 1.62110475,12.6197708 C2.59699991,12.7347208 6.94784668,11.0631958 6.94784668,11.0631958 C6.94784668,11.0631958 7.99361281,10.4580458 12.0654354,10.5877208 L13.1116612,10.5877208 C13.1116612,10.5877208 15.0754031,10.4081708 17.0019112,11.6108708 L18.8429193,12.6197708 C18.8429193,12.6197708 19.6418386,13.2073458 21.2410564,13.2681458 C22.8407338,13.3284708 25.201637,13.7868458 25.201637,13.7868458 C25.201637,13.7868458 27.1773306,13.9882458 27.6420644,15.6887458 C27.6420644,15.6887458 28.0461209,16.9137708 27.9206289,17.9079458 C27.9206289,17.9079458 27.981766,18.2418708 26.0014757,18.3914958" id="Path"></path>
                            <path d="M23.97025,20.3000002 C22.7828814,20.3000002 21.8202499,19.337472 21.8202499,18.1502308 C21.8202499,16.9625282 22.7828814,16 23.97025,16 C25.1576186,16 26.1202501,16.9625282 26.1202501,18.1502308 C26.1202501,19.337472 25.1576186,20.3000002 23.97025,20.3000002 Z" id="Path" stroke="#FBFBFB" stroke-width="0.5"></path>
                            <path d="M8.275113,18.1502308 C8.275113,19.337472 7.31258479,20.3000002 6.1248822,20.3000002 C4.93764102,20.3000002 3.97511281,19.337472 3.97511281,18.1502308 C3.97511281,16.9625282 4.93764102,16 6.1248822,16 C7.31258479,16 8.275113,16.9625282 8.275113,18.1502308 L8.275113,18.1502308 L8.275113,18.1502308 Z" id="Path" stroke="#FBFBFB" stroke-width="0.5"></path>
                            <g id="Mask-+-Path-Copy" transform="translate(10.000000, 0.500000)">
                                <path d="M4,8 C6.209139,8 8,6.209139 8,4 C8,1.790861 6.209139,0 4,0 C1.790861,0 0,1.790861 0,4 C0,6.209139 1.790861,8 4,8 Z M1.07750348,3.07454112 L3.36073348,3.05775687 L4.07347672,0.838897253 L4.75743411,3.07454108 L7.07750348,3.07454112 L5.20557628,4.44300102 L5.86878474,6.62652867 L4.08490029,5.29248851 L2.29460466,6.64142769 L2.94166857,4.56669331 L1.07750348,3.07454112 Z" id="Mask"></path>
                            </g>
                        </g>
                    </g>
                </g>
            </g>
        </g>
    </g>
</svg>