<?xml version="1.0" encoding="UTF-8" standalone="no"?>
<svg width="29px" height="11px" viewBox="0 0 29 11" version="1.1" xmlns="http://www.w3.org/2000/svg" xmlns:xlink="http://www.w3.org/1999/xlink" xmlns:sketch="http://www.bohemiancoding.com/sketch/ns">
    <!-- Generator: Sketch 3.5.2 (25235) - http://www.bohemiancoding.com/sketch -->
    <title>Sedan</title>
    <desc>Created with Sketch.</desc>
    <defs></defs>
    <g id="Page-1" stroke="none" stroke-width="1" fill="none" fill-rule="evenodd" sketch:type="MSPage">
        <g id="Ola-Corporate-Monthly-Report" sketch:type="MSArtboardGroup" transform="translate(-52.000000, -176.000000)" fill="#707070">
            <g id="card" sketch:type="MSLayerGroup" transform="translate(0.000000, 148.000000)">
                <g id="Group-2" transform="translate(50.000000, 16.101911)" sketch:type="MSShapeGroup">
                    <g id="Category" transform="translate(0.000000, 5.031847)">
                        <g id="Sedan" transform="translate(2.000000, 7.044586)">
                            <path d="M4.30785475,7.59327952 L1.11815314,7.13628716 C1.11815314,7.13628716 0.7361612,7.0808362 0.671806362,6.74430627 C0.607451523,6.40825436 0.323370878,6.38196296 0.309120878,5.96130054 C0.295330555,5.54111614 0.3086612,5.09798652 0.504483781,4.65629098 C0.700306362,4.21459544 0.922790233,4.3226292 0.9926612,3.49612315 C1.06207249,2.6696171 0.89474991,2.01711232 1.87110475,2.13327251 C2.84699991,2.24895468 7.19784668,0.56678302 7.19784668,0.56678302 C7.19784668,0.56678302 8.24361281,-0.0422214387 12.3154354,0.0882795168 L13.3616612,0.0882795168 C13.3616612,0.0882795168 15.3254031,-0.0924141138 17.2519112,1.1179464 L19.0929193,2.13327251 C19.0929193,2.13327251 19.8918386,2.72459003 21.4910564,2.78577729 C23.0907338,2.84648652 25.451637,3.30778111 25.451637,3.30778111 C25.451637,3.30778111 27.4273306,3.51046391 27.8920644,5.22179512 C27.8920644,5.22179512 28.2961209,6.45462283 28.1706289,7.45513015 C28.1706289,7.45513015 28.231766,7.79118206 26.2514757,7.94176009" id="Path"></path>
                            <path d="M24.22025,9.86242057 C23.0328814,9.86242057 22.0702499,8.89376161 22.0702499,7.69895839 C22.0702499,6.50369081 23.0328814,5.53503185 24.22025,5.53503185 C25.4076186,5.53503185 26.3702501,6.50369081 26.3702501,7.69895839 C26.3702501,8.89376161 25.4076186,9.86242057 24.22025,9.86242057 Z" id="Path" stroke="#FFFFFF" stroke-width="0.5"></path>
                            <path d="M8.525113,7.69895839 C8.525113,8.89376161 7.56258479,9.86242057 6.3748822,9.86242057 C5.18764102,9.86242057 4.22511281,8.89376161 4.22511281,7.69895839 C4.22511281,6.50369081 5.18764102,5.53503185 6.3748822,5.53503185 C7.56258479,5.53503185 8.525113,6.50369081 8.525113,7.69895839 L8.525113,7.69895839 L8.525113,7.69895839 Z" id="Path" stroke="#FFFFFF" stroke-width="0.5"></path>
                        </g>
                    </g>
                </g>
            </g>
        </g>
    </g>
</svg>